
          <svg data-logo="logo" xmlns="http://www.w3.org/2000/svg" viewBox="0 0 214 36">
            <g id="logogram" transform="translate(0, 1) rotate(0)"><path d="M16.0573 0H37.1389L21.6397 22.9729H0.558105L16.0573 0Z" fill="#007AFF"/><path d="M16.9805 25.102L10.9773 34H33.0589L48.5581 11.0271H32.2605L22.7645 25.102H16.9805Z" fill="#312ECB"/></g>
            <g id="logotype" transform="translate(55, 5)"><path fill="#111111" d="M17.25 26L17.25 26L10.67 26L10.67 21.51L17.01 21.51Q19.47 21.51 21.13 20.63Q22.80 19.76 23.64 17.93Q24.47 16.10 24.47 13.25L24.47 13.25Q24.47 10.41 23.63 8.59Q22.78 6.77 21.13 5.90Q19.48 5.03 17.04 5.03L17.04 5.03L10.55 5.03L10.55 0.54L17.35 0.54Q21.18 0.54 23.94 2.07Q26.70 3.60 28.18 6.44Q29.67 9.29 29.67 13.25L29.67 13.25Q29.67 17.23 28.18 20.09Q26.70 22.94 23.91 24.47Q21.12 26 17.25 26ZM8.31 0.54L13.52 0.54L13.52 26L8.31 26L8.31 0.54ZM36.52 26.38L36.52 26.38Q34.71 26.38 33.26 25.74Q31.82 25.09 30.99 23.82Q30.16 22.55 30.16 20.65L30.16 20.65Q30.16 19.06 30.75 17.98Q31.34 16.91 32.36 16.26Q33.38 15.61 34.67 15.27Q35.96 14.93 37.37 14.79L37.37 14.79Q39.03 14.62 40.05 14.47Q41.07 14.33 41.54 14.01Q42.01 13.70 42.01 13.08L42.01 13.08L42.01 12.99Q42.01 12.17 41.66 11.61Q41.32 11.05 40.66 10.75Q39.99 10.45 39.02 10.45L39.02 10.45Q38.02 10.45 37.29 10.75Q36.55 11.05 36.09 11.54Q35.63 12.04 35.41 12.65L35.41 12.65L30.71 11.87Q31.21 10.21 32.35 9.05Q33.50 7.88 35.20 7.27Q36.90 6.65 39.02 6.65L39.02 6.65Q40.57 6.65 42.02 7.02Q43.48 7.39 44.63 8.16Q45.78 8.93 46.46 10.16Q47.13 11.39 47.13 13.13L47.13 13.13L47.13 26L42.28 26L42.28 23.35L42.11 23.35Q41.65 24.24 40.88 24.91Q40.11 25.59 39.02 25.98Q37.94 26.38 36.52 26.38ZM37.97 22.77L37.97 22.77Q39.19 22.77 40.10 22.29Q41.02 21.81 41.53 20.99Q42.04 20.17 42.04 19.16L42.04 19.16L42.04 17.10Q41.82 17.27 41.36 17.40Q40.90 17.54 40.33 17.64Q39.77 17.75 39.22 17.83Q38.67 17.92 38.25 17.97L38.25 17.97Q37.31 18.10 36.59 18.41Q35.87 18.72 35.48 19.22Q35.08 19.73 35.08 20.51L35.08 20.51Q35.08 21.25 35.46 21.75Q35.84 22.26 36.48 22.51Q37.12 22.77 37.97 22.77ZM56.82 26.38L56.82 26.38Q54.51 26.38 52.74 25.72Q50.96 25.06 49.83 23.80Q48.70 22.55 48.38 20.77L48.38 20.77L53.15 19.95Q53.52 21.28 54.46 21.95Q55.40 22.62 56.97 22.62L56.97 22.62Q58.43 22.62 59.28 22.06Q60.14 21.51 60.14 20.65L60.14 20.65Q60.14 19.90 59.53 19.42Q58.92 18.94 57.68 18.69L57.68 18.69L54.38 18.00Q51.61 17.44 50.24 16.08Q48.87 14.72 48.87 12.58L48.87 12.58Q48.87 10.74 49.88 9.41Q50.89 8.09 52.69 7.37Q54.48 6.65 56.91 6.65L56.91 6.65Q59.16 6.65 60.82 7.28Q62.48 7.90 63.50 9.05Q64.53 10.19 64.87 11.75L64.87 11.75L60.32 12.55Q60.03 11.58 59.21 10.95Q58.38 10.33 56.97 10.33L56.97 10.33Q55.71 10.33 54.86 10.86Q54.00 11.39 54.00 12.26L54.00 12.26Q54.00 12.99 54.56 13.49Q55.11 13.99 56.46 14.26L56.46 14.26L59.90 14.94Q62.67 15.51 64.02 16.78Q65.37 18.05 65.37 20.10L65.37 20.10Q65.37 21.98 64.27 23.39Q63.18 24.80 61.26 25.59Q59.33 26.38 56.82 26.38ZM71.69 14.94L71.69 14.94L71.69 26L66.56 26L66.56 0.54L71.58 0.54L71.58 11.66L71.17 11.66Q71.93 9.27 73.46 7.96Q74.99 6.65 77.41 6.65L77.41 6.65Q79.39 6.65 80.87 7.52Q82.35 8.38 83.16 10.00Q83.97 11.61 83.97 13.85L83.97 13.85L83.97 26L78.85 26L78.85 14.74Q78.85 12.96 77.93 11.95Q77.02 10.94 75.40 10.94L75.40 10.94Q74.32 10.94 73.47 11.41Q72.63 11.88 72.16 12.77Q71.69 13.66 71.69 14.94ZM91.41 26L86.19 26L86.19 0.54L102.94 0.54L102.94 4.86L91.41 4.86L91.41 11.97L101.81 11.97L101.81 16.22L91.41 16.22L91.41 26ZM104.34 0.54L109.47 0.54L109.47 26L104.34 26L104.34 0.54ZM120.10 26.38L120.10 26.38Q117.23 26.38 115.12 25.14Q113.02 23.90 111.88 21.68Q110.75 19.47 110.75 16.53L110.75 16.53Q110.75 13.56 111.88 11.35Q113.02 9.13 115.12 7.89Q117.23 6.65 120.10 6.65L120.10 6.65Q122.98 6.65 125.08 7.89Q127.17 9.13 128.31 11.35Q129.44 13.56 129.44 16.53L129.44 16.53Q129.44 19.47 128.31 21.68Q127.17 23.90 125.08 25.14Q122.98 26.38 120.10 26.38ZM120.10 22.34L120.10 22.34Q121.46 22.34 122.39 21.58Q123.31 20.82 123.77 19.50Q124.23 18.17 124.23 16.52L124.23 16.52Q124.23 14.82 123.77 13.51Q123.31 12.19 122.39 11.44Q121.46 10.69 120.10 10.69L120.10 10.69Q118.73 10.69 117.82 11.44Q116.90 12.19 116.44 13.51Q115.98 14.82 115.98 16.52L115.98 16.52Q115.98 18.17 116.44 19.50Q116.90 20.82 117.82 21.58Q118.73 22.34 120.10 22.34ZM139.94 26L134.72 26L129.08 6.89L134.47 6.89L136.12 13.95Q136.55 15.85 137.05 18.08Q137.54 20.31 137.95 23.01L137.95 23.01L137.37 23.01Q137.82 20.38 138.35 18.14Q138.88 15.90 139.34 13.95L139.34 13.95L141.08 6.89L145.80 6.89L147.49 13.95Q147.93 15.88 148.46 18.11Q148.99 20.34 149.45 23.01L149.45 23.01L148.87 23.01Q149.28 20.36 149.75 18.13Q150.22 15.90 150.67 13.95L150.67 13.95L152.33 6.89L157.78 6.89L152.10 26L146.89 26L144.77 18.63Q144.46 17.52 144.16 16.18Q143.85 14.84 143.56 13.45Q143.27 12.05 142.96 10.84L142.96 10.84L143.87 10.84Q143.58 12.05 143.28 13.45Q142.98 14.84 142.67 16.19Q142.36 17.54 142.05 18.63L142.05 18.63L139.94 26Z"/></g>
            
          </svg>
        